<svg aria-hidden="true" style="position: absolute; width: 0; height: 0; overflow: hidden;" version="1.1" xmlns="http://www.w3.org/2000/svg" xmlns:xlink="http://www.w3.org/1999/xlink">
<defs>
<symbol id="icon-ins" viewBox="0 0 32 32">
<title>ins</title>
<path fill="#fff" style="fill: var(--color1, #fff)" d="M21.638 15.543c0 2.686-2.191 4.876-4.876 4.876s-4.876-2.191-4.876-4.876c0-2.686 2.19-4.876 4.876-4.876s4.876 2.191 4.876 4.876zM24.267 15.543c0-4.152-3.352-7.505-7.505-7.505s-7.505 3.352-7.505 7.505c0 4.152 3.352 7.505 7.505 7.505s7.505-3.352 7.505-7.505zM26.324 7.733c0-0.971-0.781-1.752-1.752-1.752s-1.753 0.781-1.753 1.752 0.781 1.752 1.753 1.752c0.971 0 1.752-0.781 1.752-1.752zM16.762 3.543c2.133 0 6.705-0.171 8.629 0.591 0.667 0.267 1.162 0.591 1.676 1.105s0.838 1.010 1.105 1.676c0.762 1.924 0.59 6.495 0.59 8.629s0.172 6.705-0.59 8.629c-0.267 0.667-0.59 1.162-1.105 1.676s-1.009 0.838-1.676 1.105c-1.924 0.762-6.495 0.59-8.629 0.59s-6.705 0.172-8.629-0.59c-0.667-0.267-1.162-0.59-1.676-1.105s-0.838-1.009-1.105-1.676c-0.762-1.924-0.59-6.495-0.59-8.629s-0.171-6.705 0.591-8.629c0.267-0.667 0.59-1.162 1.105-1.676s1.010-0.838 1.676-1.105c1.924-0.762 6.495-0.591 8.629-0.591zM31.39 15.543c0-2.019 0.019-4.019-0.095-6.038-0.114-2.343-0.647-4.419-2.362-6.133s-3.791-2.248-6.133-2.362c-2.019-0.114-4.019-0.095-6.038-0.095s-4.019-0.019-6.038 0.095c-2.343 0.114-4.419 0.648-6.133 2.362s-2.248 3.79-2.362 6.133c-0.114 2.019-0.095 4.019-0.095 6.038s-0.019 4.019 0.095 6.038c0.114 2.343 0.648 4.419 2.362 6.133s3.79 2.247 6.133 2.362c2.019 0.114 4.019 0.095 6.038 0.095s4.019 0.019 6.038-0.095c2.343-0.114 4.419-0.648 6.133-2.362s2.248-3.791 2.362-6.133c0.114-2.019 0.095-4.019 0.095-6.038z"></path>
</symbol>
<symbol id="icon-t" viewBox="0 0 40 32">
<title>t</title>
<path fill="#fff" style="fill: var(--color1, #fff)" d="M38.571 5.143c-1.381 0.595-2.881 1.024-4.429 1.19 1.595-0.952 2.809-2.452 3.381-4.238-1.476 0.881-3.143 1.524-4.881 1.857-1.405-1.5-3.405-2.429-5.619-2.429-4.262 0-7.69 3.452-7.69 7.69 0 0.595 0.071 1.19 0.19 1.762-6.381-0.333-12.071-3.381-15.857-8.048-0.667 1.143-1.048 2.452-1.048 3.881 0 2.667 1.357 5.024 3.429 6.405-1.262-0.048-2.452-0.405-3.476-0.976 0 0.024 0 0.071 0 0.095 0 3.738 2.643 6.833 6.167 7.548-0.643 0.167-1.333 0.262-2.024 0.262-0.5 0-0.976-0.048-1.452-0.119 0.976 3.048 3.81 5.262 7.19 5.333-2.643 2.071-5.952 3.286-9.548 3.286-0.643 0-1.238-0.024-1.857-0.095 3.405 2.19 7.452 3.452 11.81 3.452 14.143 0 21.881-11.714 21.881-21.881 0-0.333 0-0.667-0.024-1 1.5-1.095 2.809-2.452 3.857-3.976z"></path>
</symbol>
<symbol id="icon-f" viewBox="0 0 18 32">
<title>f</title>
<path fill="#fff" style="fill: var(--color1, #fff)" d="M17.125 0.786c-0.482-0.071-2.143-0.214-4.071-0.214-4.036 0-6.804 2.464-6.804 6.982v3.893h-4.554v5.286h4.554v13.554h5.464v-13.554h4.536l0.696-5.286h-5.232v-3.375c0-1.518 0.411-2.571 2.607-2.571h2.804v-4.714z"></path>
</symbol>
<symbol id="icon-hamburger-converted" viewBox="0 0 41 32">
<title>hamburger-converted</title>
<path d="M0 2.297v2.297h41.143v-4.594h-41.143v2.297zM6.857 16.011v2.297h34.286v-4.594h-34.286v2.297zM0 29.691v2.263h41.143v-4.526h-41.143v2.263z"></path>
</symbol>
<symbol id="icon-hamburger_opt" viewBox="0 0 41 32">
<title>hamburger_opt</title>
<path stroke-linejoin="miter" stroke-linecap="butt" stroke-miterlimit="4" stroke-width="4.5714" d="M0 2.286h41.143M6.857 16h34.286M0 29.714h41.143"></path>
</symbol>
</defs>
</svg>
